<?xml version="1.0" encoding="UTF-8"?>
<svg id="Layer_1" data-name="Layer 1" xmlns="http://www.w3.org/2000/svg" xmlns:xlink="http://www.w3.org/1999/xlink" viewBox="0 0 48 48">
  <defs>
    <style>
      .cls-1 {
        fill: url(#linear-gradient-2);
      }

      .cls-2 {
        fill: url(#linear-gradient-6);
      }

      .cls-3 {
        fill: url(#linear-gradient-11);
      }

      .cls-4 {
        fill: url(#linear-gradient-3);
        opacity: .5;
      }

      .cls-5 {
        fill: url(#linear-gradient-10);
      }

      .cls-6 {
        fill: url(#linear-gradient-5);
      }

      .cls-7 {
        fill: url(#linear-gradient-7);
      }

      .cls-8 {
        fill: url(#linear-gradient-9);
      }

      .cls-9 {
        fill: url(#linear-gradient);
      }

      .cls-10 {
        fill: url(#linear-gradient-4);
      }

      .cls-11 {
        fill: url(#linear-gradient-8);
      }

      .cls-12 {
        fill: url(#linear-gradient-12);
      }
    </style>
    <linearGradient id="linear-gradient" x1="11.694" y1="3.002" x2="32.904" y2="14.009" gradientUnits="userSpaceOnUse">
      <stop offset="0" stop-color="#3e4154"/>
      <stop offset="1" stop-color="#1b2129"/>
    </linearGradient>
    <linearGradient id="linear-gradient-2" x1="24" y1="27.548" x2="24" y2="48.275" gradientUnits="userSpaceOnUse">
      <stop offset="0" stop-color="#4793eb"/>
      <stop offset="1" stop-color="#2367ec"/>
    </linearGradient>
    <linearGradient id="linear-gradient-3" x1="24" y1="34.618" x2="24" y2="47.709" gradientUnits="userSpaceOnUse">
      <stop offset="0" stop-color="#2b50d2"/>
      <stop offset="1" stop-color="#182ea5"/>
    </linearGradient>
    <linearGradient id="linear-gradient-4" x1="13.043" y1="37.993" x2="17.801" y2="39.943" gradientUnits="userSpaceOnUse">
      <stop offset="0" stop-color="#fff"/>
      <stop offset="1" stop-color="#dadfe0"/>
    </linearGradient>
    <linearGradient id="linear-gradient-5" x1="24" y1="27.166" x2="24" y2="34.66" gradientUnits="userSpaceOnUse">
      <stop offset="0" stop-color="#6fc6fc"/>
      <stop offset="1" stop-color="#50a7f6"/>
    </linearGradient>
    <linearGradient id="linear-gradient-6" x1="19.655" y1="26.465" x2="28.827" y2="30.936" gradientUnits="userSpaceOnUse">
      <stop offset="0" stop-color="#f1d2bd"/>
      <stop offset="1" stop-color="#feb592"/>
    </linearGradient>
    <linearGradient id="linear-gradient-7" x1="31.5" y1="19.255" x2="31.5" y2="23.77" gradientUnits="userSpaceOnUse">
      <stop offset="0" stop-color="#c6cbcc"/>
      <stop offset="1" stop-color="#9fa5a6"/>
    </linearGradient>
    <linearGradient id="linear-gradient-8" x1="34" y1="12.261" x2="34" y2="20.068" xlink:href="#linear-gradient-2"/>
    <linearGradient id="linear-gradient-9" x1="14" y1="12.261" x2="14" y2="20.068" xlink:href="#linear-gradient-2"/>
    <linearGradient id="linear-gradient-10" x1="24" y1="9.624" x2="24" y2="29.098" gradientUnits="userSpaceOnUse">
      <stop offset="0" stop-color="#f1d2bd"/>
      <stop offset=".314" stop-color="#f2cfb9"/>
      <stop offset=".608" stop-color="#f5c7ad"/>
      <stop offset=".894" stop-color="#fbbb9b"/>
      <stop offset="1" stop-color="#feb592"/>
    </linearGradient>
    <linearGradient id="linear-gradient-11" x1="30" x2="30" y2="23.77" xlink:href="#linear-gradient-7"/>
    <linearGradient id="linear-gradient-12" x1="26" y1="20.898" x2="26" y2="24.569" xlink:href="#linear-gradient-2"/>
  </defs>
  <path class="cls-9" d="M12.787,12.642c-2.299-5.057,.861-8.872,4.035-10.136v.008c.039-.49,.103-.931,.17-1.302C17.121,.507,17.74,0,18.458,0h9.407c5.853,0,9.694,6.826,7.52,12.802l-1.486,4.087H14.718l-1.93-4.246Z"/>
  <path class="cls-1" d="M38,48H10c-1.488,0-2.889-.658-3.842-1.806-.955-1.149-1.345-2.65-1.071-4.118l1.421-7.571c.491-2.648,2.422-4.741,5.037-5.46l6.933-1.889c3.611-.985,7.432-.985,11.045,0l6.931,1.889s.002,0,.002,0c2.615,.719,4.546,2.812,5.038,5.462l1.419,7.568c.274,1.468-.115,2.969-1.07,4.119-.953,1.148-2.354,1.806-3.842,1.806Z"/>
  <rect class="cls-4" x="23" y="32" width="2" height="16"/>
  <path class="cls-10" d="M17,40h-3c-.553,0-1-.448-1-1s.447-1,1-1h3c.553,0,1,.448,1,1s-.447,1-1,1Z"/>
  <path class="cls-6" d="M22,26h4c3.866,0,7,3.134,7,7h0c0,1.105-.895,2-2,2h-14c-1.105,0-2-.895-2-2h0c0-3.866,3.134-7,7-7Z"/>
  <path class="cls-2" d="M19,24.04v5.96c0,2.761,2.239,5,5,5h0c2.761,0,5-2.239,5-5v-5.96h-10Z"/>
  <path class="cls-7" d="M33.001,24h-5.001c-.553,0-1-.448-1-1s.447-1,1-1h5.001c.552,0,1-.449,1-1v-3c0-.552,.447-1,1-1s1,.448,1,1v3c0,1.654-1.346,3-3,3Z"/>
  <path class="cls-11" d="M34,20h-2c-.553,0-1-.448-1-1v-6c0-.552,.447-1,1-1h2c1.654,0,3,1.346,3,3v2c0,1.654-1.346,3-3,3Z"/>
  <path class="cls-8" d="M11,17v-2c0-1.654,1.346-3,3-3h2c.553,0,1,.448,1,1v6c0,.552-.447,1-1,1h-2c-1.654,0-3-1.346-3-3Z"/>
  <path class="cls-5" d="M15,20v-7c0-2.209,1.791-4,4-4h10c2.209,0,4,1.791,4,4v7c0,1.921-.763,3.763-2.121,5.121l-1.757,1.757c-1.358,1.358-3.2,2.121-5.121,2.121h0c-1.921,0-3.763-.763-5.121-2.121l-1.757-1.757c-1.358-1.358-2.121-3.2-2.121-5.121Z"/>
  <path class="cls-3" d="M33.001,24h-5.001c-.553,0-1-.448-1-1s.447-1,1-1h5.001v2Z"/>
  <rect class="cls-12" x="23" y="21" width="6" height="4" rx="2" ry="2"/>
</svg>